<svg width="2859" height="631" xmlns="http://www.w3.org/2000/svg" xmlns:xlink="http://www.w3.org/1999/xlink" xml:space="preserve" overflow="hidden"><g transform="translate(-774 -1491)"><path d="M776.875 1496.71 1346.12 1496.71 1346.12 1705.71 776.875 1705.71Z" fill="#156082" fill-rule="evenodd"/><path d="M1346.12 1496.71 1915.38 1496.71 1915.38 1705.71 1346.12 1705.71Z" fill="#156082" fill-rule="evenodd"/><path d="M1915.38 1496.71 2484.62 1496.71 2484.62 1705.71 1915.38 1705.71Z" fill="#156082" fill-rule="evenodd"/><path d="M2484.62 1496.71 3053.88 1496.71 3053.88 1705.71 2484.62 1705.71Z" fill="#156082" fill-rule="evenodd"/><path d="M3053.88 1496.71 3623.12 1496.71 3623.12 1705.71 3053.88 1705.71Z" fill="#156082" fill-rule="evenodd"/><path d="M776.875 1705.71 1346.12 1705.71 1346.12 1839.54 776.875 1839.54Z" fill="#CCD2D8" fill-rule="evenodd"/><path d="M1346.12 1705.71 1915.38 1705.71 1915.38 1839.54 1346.12 1839.54Z" fill="#CCD2D8" fill-rule="evenodd"/><path d="M1915.38 1705.71 2484.62 1705.71 2484.62 1839.54 1915.38 1839.54Z" fill="#CCD2D8" fill-rule="evenodd"/><path d="M2484.62 1705.71 3053.88 1705.71 3053.88 1839.54 2484.62 1839.54Z" fill="#CCD2D8" fill-rule="evenodd"/><path d="M3053.88 1705.71 3623.12 1705.71 3623.12 1839.54 3053.88 1839.54Z" fill="#CCD2D8" fill-rule="evenodd"/><path d="M776.875 1839.54 1346.12 1839.54 1346.12 1973.38 776.875 1973.38Z" fill="#E7EAED" fill-rule="evenodd"/><path d="M1346.12 1839.54 1915.38 1839.54 1915.38 1973.38 1346.12 1973.38Z" fill="#E7EAED" fill-rule="evenodd"/><path d="M1915.38 1839.54 2484.62 1839.54 2484.62 1973.38 1915.38 1973.38Z" fill="#E7EAED" fill-rule="evenodd"/><path d="M2484.62 1839.54 3053.88 1839.54 3053.88 1973.38 2484.62 1973.38Z" fill="#E7EAED" fill-rule="evenodd"/><path d="M3053.88 1839.54 3623.12 1839.54 3623.12 1973.38 3053.88 1973.38Z" fill="#E7EAED" fill-rule="evenodd"/><path d="M776.875 1973.38 1346.12 1973.38 1346.12 2107.21 776.875 2107.21Z" fill="#CCD2D8" fill-rule="evenodd"/><path d="M1346.12 1973.38 1915.38 1973.38 1915.38 2107.21 1346.12 2107.21Z" fill="#CCD2D8" fill-rule="evenodd"/><path d="M1915.38 1973.38 2484.62 1973.38 2484.62 2107.21 1915.38 2107.21Z" fill="#CCD2D8" fill-rule="evenodd"/><path d="M2484.62 1973.38 3053.88 1973.38 3053.88 2107.21 2484.62 2107.21Z" fill="#CCD2D8" fill-rule="evenodd"/><path d="M3053.88 1973.38 3623.12 1973.38 3623.12 2107.21 3053.88 2107.21Z" fill="#CCD2D8" fill-rule="evenodd"/><path d="M1346.12 1494.42 1346.12 2109.5" stroke="#FFFFFF" stroke-width="4.58333" stroke-linejoin="round" stroke-miterlimit="10" fill="none" fill-rule="evenodd"/><path d="M1915.38 1494.42 1915.38 2109.5" stroke="#FFFFFF" stroke-width="4.58333" stroke-linejoin="round" stroke-miterlimit="10" fill="none" fill-rule="evenodd"/><path d="M2484.62 1494.42 2484.62 2109.5" stroke="#FFFFFF" stroke-width="4.58333" stroke-linejoin="round" stroke-miterlimit="10" fill="none" fill-rule="evenodd"/><path d="M3053.88 1494.42 3053.88 2109.5" stroke="#FFFFFF" stroke-width="4.58333" stroke-linejoin="round" stroke-miterlimit="10" fill="none" fill-rule="evenodd"/><path d="M774.583 1705.71 3625.42 1705.71" stroke="#FFFFFF" stroke-width="13.75" stroke-linejoin="round" stroke-miterlimit="10" fill="none" fill-rule="evenodd"/><path d="M774.583 1839.54 3625.42 1839.54" stroke="#FFFFFF" stroke-width="4.58333" stroke-linejoin="round" stroke-miterlimit="10" fill="none" fill-rule="evenodd"/><path d="M774.583 1973.38 3625.42 1973.38" stroke="#FFFFFF" stroke-width="4.58333" stroke-linejoin="round" stroke-miterlimit="10" fill="none" fill-rule="evenodd"/><path d="M776.875 1494.42 776.875 2109.5" stroke="#FFFFFF" stroke-width="4.58333" stroke-linejoin="round" stroke-miterlimit="10" fill="none" fill-rule="evenodd"/><path d="M3623.12 1494.42 3623.12 2109.5" stroke="#FFFFFF" stroke-width="4.58333" stroke-linejoin="round" stroke-miterlimit="10" fill="none" fill-rule="evenodd"/><path d="M774.583 1496.71 3625.42 1496.71" stroke="#FFFFFF" stroke-width="4.58333" stroke-linejoin="round" stroke-miterlimit="10" fill="none" fill-rule="evenodd"/><path d="M774.583 2107.21 3625.42 2107.21" stroke="#FFFFFF" stroke-width="4.58333" stroke-linejoin="round" stroke-miterlimit="10" fill="none" fill-rule="evenodd"/><path d="M3275.59 1538.74C3273.79 1538.74 3272.58 1538.76 3271.96 1538.81L3267.79 1558.09 3270.03 1558.09C3273.1 1558.09 3275.49 1557.62 3277.22 1556.68 3278.94 1555.74 3280.31 1554.31 3281.33 1552.39 3282.35 1550.46 3282.86 1548.21 3282.86 1545.62 3282.86 1543.31 3282.28 1541.59 3281.12 1540.45 3279.95 1539.31 3278.11 1538.74 3275.59 1538.74ZM3258.16 1534.57 3275.95 1534.57C3278.42 1534.57 3280.44 1534.64 3281.99 1534.8 3283.55 1534.95 3285.07 1535.31 3286.55 1535.87 3288.04 1536.43 3289.27 1537.14 3290.24 1538.02 3291.22 1538.9 3291.97 1539.97 3292.49 1541.21 3293.01 1542.46 3293.27 1543.89 3293.27 1545.51 3293.27 1549.1 3292.22 1552.14 3290.1 1554.63 3287.99 1557.13 3284.77 1559.12 3280.44 1560.62L3280.48 1560.94C3281.9 1562.11 3282.94 1563.23 3283.6 1564.31 3284.25 1565.39 3284.8 1566.97 3285.25 1569.03L3286.29 1574.02C3286.67 1575.83 3287.03 1577.12 3287.37 1577.89 3287.72 1578.66 3288.18 1579.29 3288.76 1579.78 3289.35 1580.27 3290.15 1580.63 3291.17 1580.87L3290.67 1583.22 3277.95 1583.22C3277.16 1580.99 3276.47 1578.34 3275.88 1575.27L3274.74 1569.35C3274.41 1567.57 3274.01 1566.17 3273.56 1565.15 3273.11 1564.13 3272.54 1563.39 3271.85 1562.94 3271.16 1562.49 3270.23 1562.26 3269.07 1562.26L3266.86 1562.26 3264.29 1573.6C3264.13 1574.38 3264.01 1575.06 3263.94 1575.63 3263.87 1576.2 3263.83 1576.91 3263.83 1577.77 3263.83 1578.86 3264.11 1579.63 3264.67 1580.08 3265.23 1580.54 3266.1 1580.8 3267.29 1580.87L3266.79 1583.22 3248.36 1583.22 3248.86 1580.87C3250.21 1580.49 3251.21 1579.82 3251.85 1578.87 3252.5 1577.92 3253.1 1576.16 3253.67 1573.6L3260.16 1544.19C3260.47 1542.79 3260.62 1541.4 3260.62 1540.02 3260.62 1539.02 3260.39 1538.29 3259.93 1537.83 3259.46 1537.36 3258.71 1537.06 3257.66 1536.92Z" fill="#FFFFFF" fill-rule="evenodd"/><text fill="#000000" fill-opacity="0" font-family="Arial,Arial_MSFontService,sans-serif" font-size="48.6548" x="3248.36" y="1577.14">𝑹</text><path d="M3380.49 1574.79C3378.88 1574.79 3377.46 1575.6 3376.22 1577.21 3374.97 1578.82 3373.97 1580.99 3373.21 1583.72 3372.45 1586.44 3372.07 1588.89 3372.07 1591.04 3372.07 1592.3 3372.26 1593.24 3372.63 1593.86 3373 1594.48 3373.58 1594.8 3374.35 1594.8 3375.49 1594.8 3376.65 1594.24 3377.83 1593.13 3379.01 1592.01 3379.97 1590.71 3380.69 1589.21 3381.42 1587.7 3382.06 1585.65 3382.63 1583.05L3382.84 1582.09C3383.12 1580.81 3383.25 1579.54 3383.25 1578.26 3383.25 1577.12 3383.04 1576.26 3382.61 1575.67 3382.18 1575.08 3381.47 1574.79 3380.49 1574.79ZM3318.69 1574.79C3317.14 1574.79 3315.74 1575.57 3314.5 1577.12 3313.26 1578.67 3312.25 1580.83 3311.46 1583.59 3310.68 1586.35 3310.28 1588.83 3310.28 1591.04 3310.28 1592.3 3310.47 1593.24 3310.84 1593.86 3311.21 1594.48 3311.78 1594.8 3312.56 1594.8 3313.3 1594.8 3314.05 1594.56 3314.81 1594.08 3315.57 1593.61 3316.37 1592.88 3317.21 1591.88 3318.04 1590.89 3318.75 1589.7 3319.32 1588.3 3319.89 1586.9 3320.39 1585.14 3320.84 1583.02L3321.05 1582.06C3321.33 1580.79 3321.46 1579.54 3321.46 1578.34 3321.46 1577.15 3321.25 1576.26 3320.82 1575.67 3320.39 1575.08 3319.68 1574.79 3318.69 1574.79ZM3405.23 1572.1C3406.56 1572.1 3407.63 1572.29 3408.45 1572.68 3409.27 1573.07 3409.92 1573.6 3410.41 1574.29 3410.89 1574.97 3411.28 1575.83 3411.57 1576.89 3411.81 1577.71 3412.1 1579.17 3412.42 1581.26 3412.96 1584.66 3413.42 1588 3413.8 1591.28 3415.71 1588.53 3417.18 1585.86 3418.21 1583.25 3419.24 1580.65 3419.75 1578.32 3419.75 1576.27 3419.75 1575.61 3419.59 1575.11 3419.28 1574.78 3418.97 1574.44 3418.43 1574.26 3417.65 1574.22L3418.01 1572.51 3425.31 1572.51 3426.22 1574.22C3425.87 1575.41 3425.34 1576.85 3424.61 1578.54 3423.54 1581.03 3422.1 1583.81 3420.29 1586.9 3418.65 1589.68 3416.87 1592.46 3414.93 1595.23 3412.67 1598.48 3410.71 1601.1 3409.03 1603.09 3407.36 1605.08 3405.91 1606.55 3404.69 1607.5 3403.72 1608.23 3402.8 1608.74 3401.92 1609.04 3401.04 1609.34 3400.11 1609.49 3399.12 1609.49 3397.85 1609.49 3396.64 1609.3 3395.5 1608.92L3396.79 1603.08 3399.51 1603.08C3399.53 1603.8 3399.64 1604.34 3399.83 1604.68 3400.03 1605.03 3400.39 1605.2 3400.91 1605.2 3401.32 1605.2 3401.71 1605.12 3402.07 1604.98 3402.44 1604.83 3402.89 1604.54 3403.44 1604.11 3404 1603.68 3404.69 1602.98 3405.53 1602 3406.36 1601.03 3407.31 1599.85 3408.36 1598.47 3408.02 1596.36 3407.57 1593.89 3407.03 1591.03 3406.49 1588.17 3405.95 1585.58 3405.44 1583.24 3404.92 1580.9 3404.54 1579.32 3404.3 1578.49 3404.06 1577.66 3403.82 1577.07 3403.6 1576.72 3403.38 1576.36 3403.17 1576.13 3402.98 1576.02 3402.79 1575.91 3402.59 1575.85 3402.38 1575.85 3401.95 1575.85 3401.56 1576.03 3401.19 1576.38 3400.83 1576.74 3400.36 1577.48 3399.77 1578.62L3397.41 1577.53C3398.42 1575.72 3399.55 1574.36 3400.83 1573.46 3402.11 1572.55 3403.57 1572.1 3405.23 1572.1ZM3380.18 1572.1C3382.75 1572.1 3384.94 1572.72 3386.75 1573.96L3389.26 1572.1 3392.16 1572.51 3387.96 1590.11C3387.71 1591.2 3387.58 1592.18 3387.58 1593.06 3387.58 1593.63 3387.67 1594.07 3387.86 1594.38 3388.05 1594.69 3388.38 1594.85 3388.84 1594.85 3389.38 1594.85 3389.96 1594.61 3390.58 1594.12 3391.2 1593.64 3391.92 1592.92 3392.75 1591.97L3394.62 1593.84C3392.8 1595.65 3391.24 1596.9 3389.93 1597.58 3388.62 1598.26 3387.24 1598.6 3385.79 1598.6 3384.34 1598.6 3383.19 1598.2 3382.35 1597.4 3381.5 1596.59 3381.08 1595.54 3381.08 1594.23 3381.08 1593.79 3381.13 1593.38 3381.24 1592.98L3380.87 1592.93C3379.61 1594.42 3378.53 1595.53 3377.63 1596.28 3376.72 1597.03 3375.76 1597.61 3374.74 1598 3373.72 1598.4 3372.59 1598.6 3371.35 1598.6 3369.28 1598.6 3367.71 1597.9 3366.64 1596.49 3365.57 1595.08 3365.04 1593.04 3365.04 1590.34 3365.04 1588.01 3365.37 1585.7 3366.05 1583.41 3366.72 1581.11 3367.68 1579.13 3368.94 1577.47 3370.2 1575.8 3371.79 1574.49 3373.69 1573.54 3375.6 1572.58 3377.76 1572.1 3380.18 1572.1ZM3342.74 1572.1C3344.17 1572.1 3345.31 1572.5 3346.17 1573.3 3347.02 1574.1 3347.45 1575.16 3347.45 1576.47 3347.45 1576.94 3347.35 1577.53 3347.16 1578.23L3347.37 1578.31C3348.82 1576.27 3350.34 1574.73 3351.93 1573.68 3353.51 1572.63 3355.27 1572.1 3357.2 1572.1 3358.34 1572.1 3359.55 1572.26 3360.83 1572.59L3359.3 1579.55 3354.67 1579.55C3354.67 1578.4 3354.54 1577.59 3354.29 1577.15 3354.04 1576.7 3353.62 1576.47 3353.01 1576.47 3352.55 1576.47 3352.04 1576.64 3351.49 1576.96 3350.93 1577.29 3350.27 1577.93 3349.51 1578.88 3348.74 1579.83 3348.16 1580.73 3347.77 1581.6 3347.38 1582.46 3347.04 1583.56 3346.75 1584.91L3343.83 1598.19 3336.4 1598.19 3340.56 1580.2C3340.82 1579.08 3340.95 1578.22 3340.95 1577.64 3340.95 1577.07 3340.86 1576.63 3340.67 1576.32 3340.48 1576.01 3340.15 1575.85 3339.68 1575.85 3339.15 1575.85 3338.57 1576.09 3337.95 1576.58 3337.33 1577.06 3336.61 1577.78 3335.78 1578.72L3333.91 1576.86C3335.64 1575.1 3337.17 1573.87 3338.51 1573.16 3339.84 1572.45 3341.25 1572.1 3342.74 1572.1ZM3318.44 1572.1C3319.66 1572.1 3320.79 1572.23 3321.81 1572.5 3322.84 1572.77 3323.89 1573.26 3324.96 1573.96L3327.29 1572.1 3330.18 1572.51 3327.96 1582.63C3327.6 1584.29 3327.27 1585.88 3326.98 1587.39 3326.04 1592.12 3325.4 1595.27 3325.03 1596.84 3324.4 1599.51 3323.74 1601.53 3323.07 1602.9 3322.36 1604.33 3321.45 1605.55 3320.32 1606.56 3319.2 1607.57 3317.8 1608.33 3316.11 1608.85 3314.17 1609.45 3311.83 1609.75 3309.07 1609.75 3305.41 1609.75 3302.67 1609.27 3300.84 1608.29 3299.01 1607.32 3298.09 1605.85 3298.09 1603.9 3298.09 1602.83 3298.47 1601.83 3299.23 1600.88 3299.99 1599.93 3301.11 1599.02 3302.6 1598.16L3305.29 1600.33C3304.82 1600.9 3304.5 1601.44 3304.32 1601.94 3304.14 1602.44 3304.05 1602.98 3304.05 1603.57 3304.05 1604.74 3304.46 1605.62 3305.28 1606.19 3306.1 1606.77 3307.33 1607.06 3308.96 1607.06 3311.6 1607.06 3313.69 1606.07 3315.23 1604.1 3316.76 1602.12 3318.07 1598.51 3319.16 1593.27L3318.82 1593.04C3317.31 1594.97 3315.85 1596.38 3314.45 1597.27 3313.05 1598.16 3311.38 1598.6 3309.43 1598.6 3307.5 1598.6 3305.98 1597.89 3304.89 1596.48 3303.79 1595.06 3303.24 1593.02 3303.24 1590.34 3303.24 1587.98 3303.59 1585.65 3304.28 1583.34 3304.97 1581.04 3305.95 1579.06 3307.22 1577.4 3308.49 1575.75 3310.06 1574.45 3311.95 1573.51 3313.84 1572.57 3316 1572.1 3318.44 1572.1Z" fill="#FFFFFF" fill-rule="evenodd"/><text fill="#000000" fill-opacity="0" font-family="Arial,Arial_MSFontService,sans-serif" font-size="37.6538" x="3298.09" y="1605.05">𝒈𝒓𝒂𝒚</text><path d="M2697.47 1536.72C2695.67 1536.72 2694.46 1536.74 2693.84 1536.79L2689.67 1556.07 2691.91 1556.07C2694.98 1556.07 2697.37 1555.61 2699.1 1554.67 2700.82 1553.73 2702.19 1552.3 2703.21 1550.37 2704.23 1548.45 2704.75 1546.19 2704.75 1543.6 2704.75 1541.29 2704.16 1539.57 2703 1538.43 2701.83 1537.29 2699.99 1536.72 2697.47 1536.72ZM2680.04 1532.55 2697.83 1532.55C2700.3 1532.55 2702.32 1532.63 2703.87 1532.78 2705.43 1532.94 2706.95 1533.29 2708.44 1533.85 2709.92 1534.41 2711.15 1535.13 2712.12 1536.01 2713.1 1536.89 2713.85 1537.95 2714.37 1539.2 2714.89 1540.44 2715.15 1541.88 2715.15 1543.49 2715.15 1547.08 2714.1 1550.12 2711.98 1552.62 2709.87 1555.11 2706.65 1557.11 2702.32 1558.61L2702.36 1558.93C2703.78 1560.09 2704.82 1561.21 2705.48 1562.29 2706.13 1563.38 2706.68 1564.95 2707.13 1567.02L2708.17 1572.01C2708.55 1573.81 2708.91 1575.1 2709.25 1575.88 2709.6 1576.65 2710.06 1577.28 2710.65 1577.76 2711.23 1578.25 2712.03 1578.61 2713.05 1578.85L2712.55 1581.2 2699.83 1581.2C2699.04 1578.97 2698.35 1576.32 2697.76 1573.26L2696.62 1567.34C2696.29 1565.56 2695.89 1564.15 2695.44 1563.13 2694.99 1562.11 2694.42 1561.37 2693.73 1560.92 2693.04 1560.47 2692.12 1560.24 2690.95 1560.24L2688.74 1560.24 2686.18 1571.58C2686.01 1572.36 2685.89 1573.04 2685.82 1573.61 2685.75 1574.18 2685.71 1574.89 2685.71 1575.75 2685.71 1576.84 2685.99 1577.62 2686.55 1578.07 2687.11 1578.52 2687.98 1578.78 2689.17 1578.85L2688.67 1581.2 2670.24 1581.2 2670.74 1578.85C2672.1 1578.47 2673.09 1577.81 2673.74 1576.86 2674.38 1575.9 2674.98 1574.15 2675.55 1571.58L2682.04 1542.17C2682.35 1540.77 2682.5 1539.38 2682.5 1538 2682.5 1537 2682.27 1536.27 2681.81 1535.81 2681.35 1535.35 2680.59 1535.04 2679.55 1534.9Z" fill="#FFFFFF" fill-rule="evenodd"/><text fill="#000000" fill-opacity="0" font-family="Arial,Arial_MSFontService,sans-serif" font-size="48.6548" x="2670.24" y="1575.12">𝑹</text><path d="M2856.29 1572.77C2854.68 1572.77 2853.24 1573.57 2851.95 1575.15 2850.67 1576.74 2849.61 1579.05 2848.78 1582.09 2851.96 1582 2854.39 1581.4 2856.07 1580.27 2857.75 1579.14 2858.59 1577.54 2858.59 1575.47 2858.59 1574.59 2858.39 1573.92 2857.98 1573.46 2857.58 1573 2857.01 1572.77 2856.29 1572.77ZM2721.01 1570.5 2730.04 1570.5 2731.47 1589.28C2734.05 1585.28 2735.86 1582.09 2736.89 1579.72 2737.91 1577.35 2738.56 1574.84 2738.82 1572.2L2739.18 1570.5 2745 1570.5 2746.61 1589.31C2749.11 1585.53 2750.92 1582.46 2752.05 1580.1 2753.18 1577.73 2753.75 1575.78 2753.75 1574.25 2753.75 1573.59 2753.59 1573.1 2753.28 1572.76 2752.97 1572.42 2752.43 1572.24 2751.65 1572.2L2752.01 1570.5 2759.31 1570.5 2760.22 1572.2C2759.41 1574.53 2757.63 1577.93 2754.9 1582.39 2752.17 1586.85 2748.92 1591.57 2745.16 1596.56L2740.78 1596.56 2739.98 1588.9C2739.76 1586.83 2739.61 1585.26 2739.54 1584.21 2739.47 1583.16 2739.44 1582.32 2739.44 1581.7L2739.18 1581.7C2737.02 1586.19 2733.99 1591.14 2730.09 1596.56L2725.39 1596.56 2723.34 1576.66C2723.22 1575.45 2723.07 1574.56 2722.89 1573.98 2722.71 1573.4 2722.45 1572.97 2722.11 1572.7 2721.77 1572.42 2721.28 1572.26 2720.62 1572.2ZM2807.65 1570.21 2810.6 1570.21 2806.46 1588.02C2806.28 1588.74 2806.17 1589.3 2806.11 1589.7 2806.05 1590.1 2806.02 1590.54 2806.02 1591.04 2806.02 1591.72 2806.13 1592.18 2806.35 1592.44 2806.58 1592.7 2806.9 1592.83 2807.31 1592.83 2807.81 1592.83 2808.37 1592.59 2808.99 1592.12 2809.61 1591.64 2810.35 1590.92 2811.19 1589.96L2813.06 1591.82C2811.37 1593.55 2809.85 1594.77 2808.51 1595.5 2807.18 1596.22 2805.71 1596.58 2804.1 1596.58 2802.27 1596.58 2800.94 1596.13 2800.09 1595.24 2799.25 1594.34 2798.82 1592.99 2798.82 1591.17 2798.82 1590.02 2799.01 1588.66 2799.39 1587.11L2801.57 1578.1C2801.96 1576.47 2802.16 1575.17 2802.16 1574.22 2802.16 1573.55 2802 1573.07 2801.68 1572.79 2801.36 1572.5 2800.69 1572.31 2799.68 1572.2L2800.07 1570.5ZM2856.94 1570.08C2862.22 1570.08 2864.86 1571.99 2864.86 1575.8 2864.86 1577.11 2864.59 1578.27 2864.07 1579.27 2863.54 1580.27 2862.66 1581.18 2861.44 1581.99 2860.21 1582.8 2858.48 1583.45 2856.25 1583.95 2854.02 1584.45 2851.32 1584.74 2848.16 1584.81 2847.94 1585.83 2847.83 1586.88 2847.83 1587.96 2847.83 1589.57 2848.16 1590.78 2848.84 1591.59 2849.51 1592.4 2850.53 1592.8 2851.89 1592.8 2853.41 1592.8 2854.78 1592.5 2856 1591.89 2857.23 1591.27 2858.67 1590.18 2860.33 1588.61L2862.5 1590.79C2860.76 1592.75 2858.88 1594.21 2856.87 1595.16 2854.86 1596.11 2852.68 1596.58 2850.34 1596.58 2848.32 1596.58 2846.6 1596.23 2845.19 1595.52 2843.77 1594.81 2842.71 1593.77 2841.99 1592.38 2841.28 1590.99 2840.92 1589.33 2840.92 1587.4 2840.92 1586.5 2841.04 1585.35 2841.28 1583.95 2841.61 1582.06 2842.11 1580.37 2842.78 1578.88 2843.63 1577.05 2844.73 1575.48 2846.09 1574.17 2847.46 1572.86 2849.06 1571.85 2850.89 1571.14 2852.73 1570.44 2854.75 1570.08 2856.94 1570.08ZM2825.66 1564.03 2831.87 1564.03 2830.36 1570.5 2836.65 1570.5 2835.95 1573.73 2829.61 1573.73 2827.1 1584.08C2826.67 1585.86 2826.38 1587.21 2826.21 1588.13 2826.05 1589.06 2825.97 1589.84 2825.97 1590.48 2825.97 1591.29 2826.11 1591.88 2826.41 1592.25 2826.7 1592.62 2827.13 1592.8 2827.7 1592.8 2828.48 1592.8 2829.27 1592.53 2830.09 1591.98 2830.91 1591.42 2831.8 1590.57 2832.75 1589.41L2834.74 1591.46C2833 1593.37 2831.4 1594.71 2829.94 1595.46 2828.48 1596.21 2826.76 1596.58 2824.78 1596.58 2822.81 1596.58 2821.3 1596.08 2820.25 1595.07 2819.19 1594.06 2818.67 1592.67 2818.67 1590.89 2818.67 1590.08 2818.73 1589.31 2818.85 1588.57 2818.97 1587.84 2819.22 1586.64 2819.6 1584.96L2822.26 1573.73 2818.23 1573.73 2818.72 1571.64C2819.93 1571.64 2820.84 1571.52 2821.46 1571.3 2822.08 1571.07 2822.61 1570.74 2823.03 1570.29 2823.45 1569.84 2823.86 1569.16 2824.26 1568.25 2824.65 1567.33 2825.12 1565.92 2825.66 1564.03ZM2805.76 1560.17 2812.38 1560.17 2811.04 1566.51 2804.34 1566.51ZM2776.24 1559.11 2779.16 1559.11 2775.17 1574.92 2775.51 1575.03C2776.91 1573.33 2778.31 1572.09 2779.73 1571.29 2781.14 1570.48 2782.71 1570.08 2784.44 1570.08 2786.2 1570.08 2787.58 1570.58 2788.58 1571.58 2789.58 1572.58 2790.08 1573.95 2790.08 1575.67 2790.08 1576.22 2790.02 1576.91 2789.91 1577.74 2789.8 1578.57 2789.67 1579.3 2789.51 1579.94L2787.47 1588.02C2787.17 1589.17 2787.03 1590.18 2787.03 1591.04 2787.03 1591.72 2787.14 1592.18 2787.36 1592.44 2787.59 1592.7 2787.91 1592.83 2788.32 1592.83 2788.82 1592.83 2789.38 1592.6 2789.99 1592.13 2790.6 1591.67 2791.34 1590.94 2792.2 1589.96L2794.07 1591.82C2792.38 1593.55 2790.86 1594.77 2789.52 1595.5 2788.19 1596.22 2786.72 1596.58 2785.11 1596.58 2783.35 1596.58 2782.03 1596.15 2781.15 1595.29 2780.27 1594.43 2779.83 1593.11 2779.83 1591.33 2779.83 1589.97 2780.07 1588.39 2780.53 1586.59L2781.72 1582.09C2782.02 1580.97 2782.27 1579.87 2782.47 1578.79 2782.68 1577.71 2782.78 1576.84 2782.78 1576.16 2782.78 1575.42 2782.63 1574.85 2782.32 1574.46 2782.01 1574.06 2781.54 1573.86 2780.92 1573.86 2780.04 1573.86 2779.01 1574.42 2777.84 1575.53 2776.67 1576.64 2775.79 1577.74 2775.21 1578.83 2774.64 1579.92 2774.18 1581.27 2773.85 1582.89L2771.01 1596.17 2763.58 1596.17 2770.13 1566.93C2770.51 1565.23 2770.7 1564 2770.7 1563.22 2770.7 1562.85 2770.66 1562.55 2770.58 1562.33 2770.5 1562.12 2770.39 1561.94 2770.23 1561.8 2770.08 1561.66 2769.87 1561.56 2769.61 1561.48 2769.35 1561.4 2768.84 1561.31 2768.08 1561.21L2768.5 1559.52Z" fill="#FFFFFF" fill-rule="evenodd"/><text fill="#000000" fill-opacity="0" font-family="Arial,Arial_MSFontService,sans-serif" font-size="37.4727" x="2720.62" y="1591.9">𝒘𝒉𝒊𝒕𝒆</text><g><text fill="#FFFFFF" font-family="Aptos,Aptos_MSFontService,sans-serif" font-weight="700" font-size="73" transform="matrix(1 0 0 1 1948.37 1581)">Std</text></g><g><text fill="#FFFFFF" font-family="Aptos,Aptos_MSFontService,sans-serif" font-weight="700" font-size="73" transform="matrix(1 0 0 1 1379.12 1581)">Mean</text></g><g><text fill="#FFFFFF" font-family="Aptos,Aptos_MSFontService,sans-serif" font-weight="700" font-size="73" transform="matrix(1 0 0 1 809.875 1581)">Image </text></g><g><text fill="#FFFFFF" font-family="Aptos,Aptos_MSFontService,sans-serif" font-weight="700" font-size="73" transform="matrix(1 0 0 1 809.875 1669)">statistics</text></g><g><text font-family="Aptos,Aptos_MSFontService,sans-serif" font-weight="400" font-size="73" transform="matrix(1 0 0 1 3086.87 1790)">0.4160 </text></g><text font-family="Aptos,Aptos_MSFontService,sans-serif" font-weight="400" font-size="73" transform="matrix(1 0 0 1 3317.76 1790)">±</text><g><text font-family="Aptos,Aptos_MSFontService,sans-serif" font-weight="400" font-size="73" transform="matrix(1 0 0 1 3371.61 1790)">0.0816</text></g><g><text font-family="Aptos,Aptos_MSFontService,sans-serif" font-weight="400" font-size="73" transform="matrix(1 0 0 1 2517.62 1790)">0.3124 </text></g><text font-family="Aptos,Aptos_MSFontService,sans-serif" font-weight="400" font-size="73" transform="matrix(1 0 0 1 2748.51 1790)">±</text><g><text font-family="Aptos,Aptos_MSFontService,sans-serif" font-weight="400" font-size="73" transform="matrix(1 0 0 1 2802.36 1790)">0.1089</text></g><g><text font-family="Aptos,Aptos_MSFontService,sans-serif" font-weight="400" font-size="73" transform="matrix(1 0 0 1 1948.37 1790)">0.2328 </text></g><text font-family="Aptos,Aptos_MSFontService,sans-serif" font-weight="400" font-size="73" transform="matrix(1 0 0 1 2179.26 1790)">±</text><g><text font-family="Aptos,Aptos_MSFontService,sans-serif" font-weight="400" font-size="73" transform="matrix(1 0 0 1 2233.11 1790)">0.0201</text></g><g><text font-family="Aptos,Aptos_MSFontService,sans-serif" font-weight="400" font-size="73" transform="matrix(1 0 0 1 1379.12 1790)">0.3039 </text></g><text font-family="Aptos,Aptos_MSFontService,sans-serif" font-weight="400" font-size="73" transform="matrix(1 0 0 1 1610.01 1790)">±</text><g><text font-family="Aptos,Aptos_MSFontService,sans-serif" font-weight="400" font-size="73" transform="matrix(1 0 0 1 1663.86 1790)">0.0354</text></g><g><text font-family="Aptos,Aptos_MSFontService,sans-serif" font-weight="400" font-size="73" transform="matrix(1 0 0 1 809.875 1790)">Real image</text></g><g><text font-family="Aptos,Aptos_MSFontService,sans-serif" font-weight="400" font-size="73" transform="matrix(1 0 0 1 3086.87 1924)">0.3901 </text></g><text font-family="Aptos,Aptos_MSFontService,sans-serif" font-weight="400" font-size="73" transform="matrix(1 0 0 1 3317.76 1924)">±</text><g><text font-family="Aptos,Aptos_MSFontService,sans-serif" font-weight="400" font-size="73" transform="matrix(1 0 0 1 3371.61 1924)">0.0690</text></g><g><text font-family="Aptos,Aptos_MSFontService,sans-serif" font-weight="400" font-size="73" transform="matrix(1 0 0 1 2517.62 1924)">0.3250 </text></g><text font-family="Aptos,Aptos_MSFontService,sans-serif" font-weight="400" font-size="73" transform="matrix(1 0 0 1 2748.51 1924)">±</text><g><text font-family="Aptos,Aptos_MSFontService,sans-serif" font-weight="400" font-size="73" transform="matrix(1 0 0 1 2802.36 1924)">0.0930</text></g><g><text font-family="Aptos,Aptos_MSFontService,sans-serif" font-weight="400" font-size="73" transform="matrix(1 0 0 1 1948.37 1924)">0.2496 </text></g><text font-family="Aptos,Aptos_MSFontService,sans-serif" font-weight="400" font-size="73" transform="matrix(1 0 0 1 2179.26 1924)">±</text><g><text font-family="Aptos,Aptos_MSFontService,sans-serif" font-weight="400" font-size="73" transform="matrix(1 0 0 1 2233.11 1924)">0.0319</text></g><g><text font-family="Aptos,Aptos_MSFontService,sans-serif" font-weight="400" font-size="73" transform="matrix(1 0 0 1 1379.12 1924)">0.3278 </text></g><text font-family="Aptos,Aptos_MSFontService,sans-serif" font-weight="400" font-size="73" transform="matrix(1 0 0 1 1610.01 1924)">±</text><g><text font-family="Aptos,Aptos_MSFontService,sans-serif" font-weight="400" font-size="73" transform="matrix(1 0 0 1 1663.86 1924)">0.0565</text></g><g><text font-family="Aptos,Aptos_MSFontService,sans-serif" font-weight="400" font-size="73" transform="matrix(1 0 0 1 809.875 1924)">1,000 steps</text></g><g><text font-family="Aptos,Aptos_MSFontService,sans-serif" font-weight="400" font-size="73" transform="matrix(1 0 0 1 3086.87 2058)">0.3353 </text></g><text font-family="Aptos,Aptos_MSFontService,sans-serif" font-weight="400" font-size="73" transform="matrix(1 0 0 1 3317.76 2058)">±</text><g><text font-family="Aptos,Aptos_MSFontService,sans-serif" font-weight="400" font-size="73" transform="matrix(1 0 0 1 3371.61 2058)">0.0826</text></g><g><text font-family="Aptos,Aptos_MSFontService,sans-serif" font-weight="400" font-size="73" transform="matrix(1 0 0 1 2517.62 2058)">0.3933 </text></g><text font-family="Aptos,Aptos_MSFontService,sans-serif" font-weight="400" font-size="73" transform="matrix(1 0 0 1 2748.51 2058)">±</text><g><text font-family="Aptos,Aptos_MSFontService,sans-serif" font-weight="400" font-size="73" transform="matrix(1 0 0 1 2802.36 2058)">0.0987</text></g><g><text font-family="Aptos,Aptos_MSFontService,sans-serif" font-weight="400" font-size="73" transform="matrix(1 0 0 1 1948.37 2058)">0.2749 </text></g><text font-family="Aptos,Aptos_MSFontService,sans-serif" font-weight="400" font-size="73" transform="matrix(1 0 0 1 2179.26 2058)">±</text><g><text font-family="Aptos,Aptos_MSFontService,sans-serif" font-weight="400" font-size="73" transform="matrix(1 0 0 1 2233.11 2058)">0.0523</text></g><g><text font-family="Aptos,Aptos_MSFontService,sans-serif" font-weight="400" font-size="73" transform="matrix(1 0 0 1 1379.12 2058)">0.3719 </text></g><text font-family="Aptos,Aptos_MSFontService,sans-serif" font-weight="400" font-size="73" transform="matrix(1 0 0 1 1610.01 2058)">±</text><g><text font-family="Aptos,Aptos_MSFontService,sans-serif" font-weight="400" font-size="73" transform="matrix(1 0 0 1 1663.86 2058)">0.0854</text></g><g><text font-family="Aptos,Aptos_MSFontService,sans-serif" font-weight="400" font-size="73" transform="matrix(1 0 0 1 809.875 2058)">100 steps</text></g></g></svg>